<svg xmlns="http://www.w3.org/2000/svg" width="540.438" height="160" viewBox="0 0 540.438 160">
  <g id="app-store-icon" transform="translate(-3.562 -3.561)">
    <path id="Path_20052" data-name="Path 20052" d="M543.562,142.955a15.532,15.532,0,0,1-15.55,15.53H19.132a15.552,15.552,0,0,1-15.57-15.53V19.111a15.572,15.572,0,0,1,15.57-15.55H528.008a15.548,15.548,0,0,1,15.55,15.55l0,123.844Z" transform="translate(0 0)" fill="#fff"/>
    <path id="Path_20054" data-name="Path 20054" d="M543.562,147.522a16.306,16.306,0,0,1-4.555,11.347,15.289,15.289,0,0,1-10.995,4.692H19.132a15.811,15.811,0,0,1-15.57-16.039V19.62A15.833,15.833,0,0,1,19.132,3.561H528.008a15.809,15.809,0,0,1,15.55,16.059l0,127.9Z" transform="translate(0.438 0)"/>
    <g id="Group_4612" data-name="Group 4612" transform="translate(0.166 -0.6)">
      <path id="Path_20055" data-name="Path 20055" d="M121.507,79.886c-.118-13.068,10.7-19.426,11.2-19.722a24.083,24.083,0,0,0-18.965-10.25c-7.978-.839-15.716,4.772-19.78,4.772-4.145,0-10.4-4.691-17.148-4.553A25.25,25.25,0,0,0,55.56,63.091c-9.19,15.907-2.336,39.282,6.469,52.14,4.4,6.3,9.551,13.328,16.288,13.081,6.591-.268,9.053-4.2,17.006-4.2,7.88,0,10.192,4.2,17.063,4.039,7.073-.109,11.527-6.325,15.777-12.679a51.971,51.971,0,0,0,7.215-14.69c-.162-.057-13.733-5.239-13.871-20.9ZM108.529,41.455c3.545-4.432,5.97-10.461,5.3-16.58-5.131.227-11.547,3.548-15.242,7.882-3.269,3.82-6.189,10.08-5.435,15.968,5.763.43,11.681-2.907,15.38-7.27Z" transform="translate(0.639 0.286)" fill="#fff"/>
      <g id="Group_4610" data-name="Group 4610" transform="translate(172.041 72.934)">
        <path id="Path_20057" data-name="Path 20057" d="M215.379,126.775h-9.211l-5.045-15.85H183.585l-4.806,15.85h-8.967l17.379-53.961h10.732l17.456,53.961Zm-15.777-22.5-4.563-14.09q-.724-2.159-2.721-10.165h-.162q-.8,3.442-2.563,10.165l-4.486,14.09Zm60.383,2.567q0,9.926-5.394,15.688a15.818,15.818,0,0,1-12,5.125q-7.732,0-11.113-5.519v20.416h-8.647v-41.9q0-6.234-.32-12.789h7.6l.483,6.167h.162q4.326-6.97,13.133-6.97a14.437,14.437,0,0,1,11.49,5.441q4.593,5.456,4.6,14.338Zm-8.809.316a16.038,16.038,0,0,0-2.563-9.371,8.86,8.86,0,0,0-7.528-3.84,8.994,8.994,0,0,0-5.8,2.121,9.836,9.836,0,0,0-3.4,5.567,11.287,11.287,0,0,0-.4,2.632v6.492a10.408,10.408,0,0,0,2.6,7.169,8.645,8.645,0,0,0,6.765,2.923,8.863,8.863,0,0,0,7.6-3.763Q251.175,113.324,251.175,107.158Zm53.573-.316q0,9.926-5.394,15.688a15.826,15.826,0,0,1-12,5.125q-7.732,0-11.113-5.519v20.416h-8.647v-41.9q0-6.234-.32-12.789h7.6l.483,6.167h.162q4.319-6.97,13.133-6.97A14.462,14.462,0,0,1,300.15,92.5q4.587,5.456,4.6,14.338Zm-8.813.316a16.039,16.039,0,0,0-2.567-9.371,8.846,8.846,0,0,0-7.52-3.84,9.031,9.031,0,0,0-5.812,2.121,9.83,9.83,0,0,0-3.4,5.567,11.548,11.548,0,0,0-.406,2.632v6.492a10.443,10.443,0,0,0,2.6,7.169,8.663,8.663,0,0,0,6.773,2.923,8.853,8.853,0,0,0,7.6-3.763Q295.936,113.324,295.935,107.158Zm58.862,4.48A14.412,14.412,0,0,1,350,122.85q-5.268,4.72-14.7,4.724-8.712,0-13.976-3.361l2-7.205a24.061,24.061,0,0,0,12.492,3.365q4.891,0,7.6-2.2a7.191,7.191,0,0,0,2.73-5.879,7.534,7.534,0,0,0-2.247-5.527,20.832,20.832,0,0,0-7.447-4.16q-14.175-5.285-14.179-15.457a13.646,13.646,0,0,1,5-10.887q5-4.245,13.254-4.245a26.2,26.2,0,0,1,12.253,2.563l-2.17,7.047a21.427,21.427,0,0,0-10.371-2.482,10.548,10.548,0,0,0-7.154,2.242,6.416,6.416,0,0,0-2.17,4.89,6.608,6.608,0,0,0,2.486,5.283q2.154,1.916,7.844,4.16,6.972,2.81,10.249,6.561a13.672,13.672,0,0,1,3.3,9.358ZM383.46,94.353h-9.531v18.891q0,7.207,5.046,7.2a15.194,15.194,0,0,0,3.841-.4l.239,6.565a19.6,19.6,0,0,1-6.725.957,10.365,10.365,0,0,1-8.01-3.126q-2.878-3.126-2.884-10.49V94.337h-5.678V87.85h5.678V80.725l8.493-2.563V87.85h9.531v6.5ZM426.379,107q0,8.971-5.127,14.731-5.36,5.93-14.252,5.924-8.578,0-13.656-5.677t-5.086-14.329q0-9.044,5.244-14.808t14.139-5.766q8.566,0,13.769,5.685,4.977,5.51,4.968,14.24Zm-8.963.2a17.419,17.419,0,0,0-2.316-9.18,8.56,8.56,0,0,0-7.771-4.635,8.684,8.684,0,0,0-7.929,4.635,17.707,17.707,0,0,0-2.32,9.342,17.368,17.368,0,0,0,2.32,9.184,8.73,8.73,0,0,0,7.856,4.635q4.958,0,7.771-4.712a17.489,17.489,0,0,0,2.389-9.269ZM454.5,95.468a15.053,15.053,0,0,0-2.726-.239,8.161,8.161,0,0,0-7.049,3.447,12.979,12.979,0,0,0-2.158,7.684v20.416h-8.647V100.119q.012-6.127-.251-12.249H441.2l.316,7.445h.239a13.347,13.347,0,0,1,4.324-6.167,10.458,10.458,0,0,1,6.25-2.084,13.886,13.886,0,0,1,2.162.158l.008,8.247ZM493.17,105.48a20.27,20.27,0,0,1-.316,3.921H466.913q.146,5.766,3.764,8.815a12.872,12.872,0,0,0,8.485,2.717,28.7,28.7,0,0,0,10.5-1.837l1.355,6a32.458,32.458,0,0,1-13.048,2.4q-9.053,0-14.22-5.32t-5.163-14.289q0-8.795,4.81-14.646A16.573,16.573,0,0,1,477,87q8.414,0,12.739,6.24a21,21,0,0,1,3.431,12.237Zm-8.245-2.242a11.7,11.7,0,0,0-1.679-6.646,7.551,7.551,0,0,0-6.887-3.609,8.2,8.2,0,0,0-6.883,3.524,12.912,12.912,0,0,0-2.559,6.723l18.008.008Z" transform="translate(-169.812 -72.016)" fill="#fff"/>
      </g>
      <g id="Group_4611" data-name="Group 4611" transform="translate(177.102 26.523)">
        <path id="Path_20058" data-name="Path 20058" d="M181.024,54.351a55.228,55.228,0,0,1-6.218-.316V27.947a47.084,47.084,0,0,1,7.321-.551c9.916,0,14.483,4.878,14.483,12.829C196.61,49.4,191.216,54.351,181.024,54.351Zm1.452-23.611a17.352,17.352,0,0,0-3.423.276V50.848a22.447,22.447,0,0,0,2.872.118c6.5,0,10.2-3.7,10.2-10.623C192.121,34.167,188.775,30.74,182.476,30.74ZM210.842,54.55c-5.589,0-9.211-4.172-9.211-9.837,0-5.9,3.7-10.113,9.527-10.113,5.508,0,9.211,3.974,9.211,9.8,0,5.977-3.817,10.149-9.527,10.149ZM211,37.706c-3.07,0-5.037,2.871-5.037,6.885,0,3.937,2.008,6.808,5,6.808s5-3.069,5-6.889c0-3.893-1.967-6.8-4.956-6.8Zm41.236-2.713-5.982,19.122h-3.9l-2.478-8.3a62.944,62.944,0,0,1-1.537-6.175h-.081a41.386,41.386,0,0,1-1.533,6.175l-2.636,8.3h-3.938l-5.629-19.122h4.368l2.166,9.091q.767,3.248,1.3,6.139h.081c.312-1.61.823-3.621,1.574-6.1L236.731,35h3.464l2.6,8.933c.629,2.165,1.14,4.29,1.537,6.3h.114a55.033,55.033,0,0,1,1.3-6.3L248.067,35l4.173,0Zm22.023,19.122h-4.25V43.136c0-3.382-1.3-5.077-3.857-5.077a4.414,4.414,0,0,0-4.25,4.683V54.116h-4.251V40.459c0-1.691-.041-3.5-.158-5.47h3.739l.2,2.952h.118a6.872,6.872,0,0,1,6.063-3.341c4.015,0,6.652,3.069,6.652,8.065l0,11.451Zm11.721,0H281.73v-27.9h4.255Zm15.5.434c-5.585,0-9.211-4.172-9.211-9.837,0-5.9,3.7-10.113,9.523-10.113,5.512,0,9.211,3.974,9.211,9.8,0,5.977-3.817,10.149-9.523,10.149Zm.158-16.843c-3.07,0-5.037,2.871-5.037,6.885,0,3.937,2.012,6.808,4.993,6.808s5-3.069,5-6.889c0-3.893-1.959-6.8-4.952-6.8Zm26.124,16.41-.308-2.2h-.114a6.531,6.531,0,0,1-5.593,2.636,5.561,5.561,0,0,1-5.861-5.628c0-4.72,4.092-7.161,11.178-7.161v-.353c0-2.518-1.334-3.779-3.971-3.779a8.952,8.952,0,0,0-5,1.419l-.864-2.794A12.228,12.228,0,0,1,323.8,34.6c5,0,7.519,2.636,7.519,7.911v7.043a28.878,28.878,0,0,0,.276,4.566l-3.833,0Zm-.584-9.525c-4.721,0-7.09,1.143-7.09,3.856a2.71,2.71,0,0,0,2.916,2.988,4.07,4.07,0,0,0,4.173-3.893Zm24.781,9.525-.2-3.069h-.118a6.412,6.412,0,0,1-6.141,3.5c-4.611,0-8.026-4.055-8.026-9.76,0-5.981,3.541-10.194,8.375-10.194,2.559,0,4.372.864,5.394,2.6h.085V26.219h4.255V48.962c0,1.849.045,3.58.158,5.154h-3.784Zm-.629-11.252c0-2.676-1.772-4.959-4.478-4.959-3.151,0-5.078,2.794-5.078,6.727,0,3.856,2,6.5,4.993,6.5,2.673,0,4.563-2.323,4.563-5.077V42.864Zm31.23,11.686c-5.585,0-9.207-4.172-9.207-9.837,0-5.9,3.7-10.113,9.523-10.113,5.512,0,9.211,3.974,9.211,9.8,0,5.977-3.812,10.149-9.527,10.149Zm.158-16.843c-3.066,0-5.033,2.871-5.033,6.885,0,3.937,2.008,6.808,4.993,6.808s5-3.069,5-6.889c.008-3.893-1.959-6.8-4.956-6.8Zm32.228,16.41h-4.255V43.136c0-3.382-1.3-5.077-3.857-5.077a4.411,4.411,0,0,0-4.246,4.683V54.116h-4.255V40.459c0-1.691-.041-3.5-.158-5.47h3.739l.2,2.952h.118a6.868,6.868,0,0,1,6.059-3.345c4.015,0,6.656,3.069,6.656,8.065Zm28.6-15.935h-4.676v9.285c0,2.364.819,3.544,2.474,3.544a8.374,8.374,0,0,0,1.886-.2l.118,3.228a9.417,9.417,0,0,1-3.3.474c-3.35,0-5.354-1.849-5.354-6.69V38.181H431.9V34.994h2.79v-3.5l4.173-1.261v4.76h4.676v3.191Zm22.5,15.935H461.8v-10.9c0-3.422-1.294-5.154-3.857-5.154a4.168,4.168,0,0,0-4.255,4.525V54.116h-4.246v-27.9h4.246V37.706h.085a6.449,6.449,0,0,1,5.751-3.11c4.048,0,6.522,3.146,6.522,8.146V54.116ZM489.1,45.577H476.344c.081,3.621,2.478,5.664,6.027,5.664a14.368,14.368,0,0,0,5.155-.9l.661,2.952a15.97,15.97,0,0,1-6.416,1.18c-5.982,0-9.523-3.779-9.523-9.638s3.626-10.271,9.044-10.271c4.887,0,7.953,3.621,7.953,9.091a8.188,8.188,0,0,1-.146,1.926Zm-3.9-3.029c0-2.952-1.488-5.036-4.206-5.036-2.442,0-4.372,2.125-4.648,5.036H485.2Z" transform="translate(-174.806 -26.219)" fill="#fff"/>
      </g>
    </g>
  </g>
</svg>
