<svg xmlns="http://www.w3.org/2000/svg" width="32" height="22.5" viewBox="0 0 32 22.5">
  <g id="Group_4617" data-name="Group 4617" transform="translate(0 -76)">
    <path id="Path_20114" data-name="Path 20114" d="M29.188,76H2.813A2.817,2.817,0,0,0,0,78.813V95.688A2.817,2.817,0,0,0,2.813,98.5H29.188A2.816,2.816,0,0,0,32,95.688V78.813A2.815,2.815,0,0,0,29.188,76Zm-.394,1.875-10.8,10.748a2.813,2.813,0,0,1-3.979,0L3.206,77.875ZM1.875,95.306V79.2l8.1,8.06Zm1.333,1.319,8.1-8.048,1.379,1.371a4.687,4.687,0,0,0,6.627,0l1.38-1.373,8.1,8.048Zm26.917-1.319-8.1-8.051,8.1-8.06Z"/>
  </g>
</svg>
