<svg id="play-store-icon" xmlns="http://www.w3.org/2000/svg" xmlns:xlink="http://www.w3.org/1999/xlink" width="540" height="160" viewBox="0 0 540 160">
  <defs>
    <linearGradient id="linear-gradient" x1="0.849" y1="0.31" x2="0.361" y2="0.799" gradientUnits="objectBoundingBox">
      <stop offset="0" stop-color="#00a0ff"/>
      <stop offset="0.007" stop-color="#00a1ff"/>
      <stop offset="0.26" stop-color="#00beff"/>
      <stop offset="0.512" stop-color="#00d2ff"/>
      <stop offset="0.76" stop-color="#00dfff"/>
      <stop offset="1" stop-color="#00e3ff"/>
    </linearGradient>
    <linearGradient id="linear-gradient-2" x1="0.97" y1="0.436" x2="-1.177" y2="0.436" gradientUnits="objectBoundingBox">
      <stop offset="0" stop-color="#ffe000"/>
      <stop offset="0.409" stop-color="#ffbd00"/>
      <stop offset="0.775" stop-color="orange"/>
      <stop offset="1" stop-color="#ff9c00"/>
    </linearGradient>
    <linearGradient id="linear-gradient-3" x1="0.761" y1="0.213" x2="-0.443" y2="1.411" gradientUnits="objectBoundingBox">
      <stop offset="0" stop-color="#ff3a44"/>
      <stop offset="1" stop-color="#c31162"/>
    </linearGradient>
    <linearGradient id="linear-gradient-4" x1="-0.17" y1="-0.275" x2="0.367" y2="0.26" gradientUnits="objectBoundingBox">
      <stop offset="0" stop-color="#32a071"/>
      <stop offset="0.068" stop-color="#2da771"/>
      <stop offset="0.476" stop-color="#15cf74"/>
      <stop offset="0.801" stop-color="#06e775"/>
      <stop offset="1" stop-color="#00f076"/>
    </linearGradient>
    <linearGradient id="linear-gradient-5" x1="0.624" y1="0.038" x2="-0.364" y2="1.027" gradientUnits="objectBoundingBox">
      <stop offset="0" stop-color="#cc2e36"/>
      <stop offset="1" stop-color="#9c0e4e"/>
    </linearGradient>
    <linearGradient id="linear-gradient-6" x1="5.233" y1="-7.998" x2="-1.121" y2="-1.634" gradientUnits="objectBoundingBox">
      <stop offset="0" stop-color="#008de0"/>
      <stop offset="0.007" stop-color="#008de0"/>
      <stop offset="0.26" stop-color="#00a7e0"/>
      <stop offset="0.512" stop-color="#00b8e0"/>
      <stop offset="0.76" stop-color="#00c4e0"/>
      <stop offset="1" stop-color="#00c7e0"/>
    </linearGradient>
    <linearGradient id="linear-gradient-7" x1="0.943" y1="-0.195" x2="-2.414" y2="-0.195" gradientUnits="objectBoundingBox">
      <stop offset="0" stop-color="#e0c500"/>
      <stop offset="0.409" stop-color="#e0a600"/>
      <stop offset="0.775" stop-color="#e09100"/>
      <stop offset="1" stop-color="#e08900"/>
    </linearGradient>
    <linearGradient id="linear-gradient-8" x1="0.944" y1="0.999" x2="-2.414" y2="0.999" gradientUnits="objectBoundingBox">
      <stop offset="0" stop-color="#ffe840"/>
      <stop offset="0.409" stop-color="#ffce40"/>
      <stop offset="0.775" stop-color="#ffbc40"/>
      <stop offset="1" stop-color="#ffb540"/>
    </linearGradient>
    <linearGradient id="linear-gradient-9" x1="5.219" y1="0.865" x2="-1.113" y2="6.933" gradientUnits="objectBoundingBox">
      <stop offset="0" stop-color="#40b8ff"/>
      <stop offset="0.007" stop-color="#40b9ff"/>
      <stop offset="0.26" stop-color="#40ceff"/>
      <stop offset="0.512" stop-color="#40ddff"/>
      <stop offset="0.76" stop-color="#40e7ff"/>
      <stop offset="1" stop-color="#40eaff"/>
    </linearGradient>
    <linearGradient id="linear-gradient-10" x1="-0.137" y1="-0.184" x2="0.304" y2="0.257" gradientUnits="objectBoundingBox">
      <stop offset="0" stop-color="#65b895"/>
      <stop offset="0.068" stop-color="#62bd95"/>
      <stop offset="0.476" stop-color="#50db97"/>
      <stop offset="0.801" stop-color="#44ed98"/>
      <stop offset="1" stop-color="#40f498"/>
    </linearGradient>
  </defs>
  <path id="Path_20059" data-name="Path 20059" d="M520,160H20A20.059,20.059,0,0,1,0,140V20A20.059,20.059,0,0,1,20,0H520a20.059,20.059,0,0,1,20,20V140a20.059,20.059,0,0,1-20,20"/>
  <path id="Path_20061" data-name="Path 20061" d="M942.891,166.275a10.832,10.832,0,0,1-2.98,8.011,11.638,11.638,0,0,1-8.817,3.552,12.537,12.537,0,1,1,0-25.074,12.378,12.378,0,0,1,4.927,1.007,9.9,9.9,0,0,1,3.753,2.681l-2.11,2.111a8.1,8.1,0,0,0-6.57-2.847,9.586,9.586,0,1,0,6.7,16.492,7.548,7.548,0,0,0,2.012-4.861h-8.716v-2.883h11.63a10.241,10.241,0,0,1,.167,1.811" transform="translate(-753.217 -125.302)" fill="#fff"/>
  <path id="Path_20062" data-name="Path 20062" d="M941.07,164.45h-.4a10.429,10.429,0,0,1-2.863,7.728l0,0,0,0a11.236,11.236,0,0,1-8.529,3.428,12.137,12.137,0,1,1,0-24.274,11.985,11.985,0,0,1,4.769.974,9.51,9.51,0,0,1,3.6,2.572l.306-.258-.283-.283-2.11,2.112.283.281.308-.256a8.515,8.515,0,0,0-6.878-2.991,9.986,9.986,0,1,0,6.986,17.175,7.957,7.957,0,0,0,2.128-5.11l.037-.434h-8.752v-2.083H940.9v-.4l-.394.07a9.764,9.764,0,0,1,.161,1.741h.8a10.576,10.576,0,0,0-.174-1.883l-.059-.328H928.873v3.683h9.116v-.4l-.4-.034a7.162,7.162,0,0,1-1.9,4.613,9.179,9.179,0,1,1-6.42-15.81,7.7,7.7,0,0,1,6.264,2.7l.281.334,2.417-2.42.259-.259-.236-.28a10.277,10.277,0,0,0-3.9-2.792,12.776,12.776,0,0,0-5.085-1.039,12.937,12.937,0,1,0,0,25.874,12.049,12.049,0,0,0,9.107-3.675l-.289-.276.283.283a11.237,11.237,0,0,0,3.1-8.294h-.4m18.437-10.025h-10.93v7.61h9.856v2.884h-9.856v7.61h10.93v2.948H945.5v-24h14.011v2.948" transform="translate(-751.397 -123.477)" fill="#fff"/>
  <path id="Path_20063" data-name="Path 20063" d="M1090.162,156.878v-.4h-11.33v8.41h9.856v2.083h-9.856v8.41h10.93v2.148h-13.211v-23.2h13.211v2.548h.4v0h.4V153.53h-14.811v24.8h14.811v-3.748h-10.93v-6.81h9.856v-3.684h-9.856v-6.81h10.93v-.4h-.4m13,21.052h-3.086V156.878h-6.7V153.93h16.492v2.948h-6.7V177.93" transform="translate(-882.051 -125.93)" fill="#fff"/>
  <path id="Path_20064" data-name="Path 20064" d="M1181.61,177.93v-.4h-2.686V156.478h-6.7V154.33h15.692v2.148h-6.7V177.93h.4v0h.4V157.278h6.7V153.53h-17.292v3.748h6.7V178.33h3.886v-.4h-.4m18.636,0v-24h3.083v24h-3.083" transform="translate(-960.495 -125.93)" fill="#fff"/>
  <path id="Path_20065" data-name="Path 20065" d="M1329.686,177.93h.4v-23.6h2.283v23.2h-2.683v.4h0v.4h3.483v-24.8h-3.883v24.8h.4v-.4m16.762,0h-3.086V156.878h-6.7V153.93h16.492v2.948h-6.7V177.93" transform="translate(-1089.934 -125.93)" fill="#fff"/>
  <path id="Path_20066" data-name="Path 20066" d="M1378.2,177.3v-.4h-2.686V155.85h-6.7V153.7h15.692v2.148h-6.7V177.3h.4v0h.4V156.65h6.7V152.9h-17.292v3.748h6.7V177.7h3.886v-.4h-.4m22.6-5.11a9.23,9.23,0,0,0,13.039,0,10.226,10.226,0,0,0,0-13.778,9.229,9.229,0,0,0-13.039,0,10.24,10.24,0,0,0,0,13.778Zm15.32,2.009a12.459,12.459,0,0,1-17.6,0,12.964,12.964,0,0,1,0-17.8,12.418,12.418,0,0,1,17.581.016,12.924,12.924,0,0,1,.016,17.781Z" transform="translate(-1121.69 -125.302)" fill="#fff"/>
  <path id="Path_20067" data-name="Path 20067" d="M1521.843,170.366l-.285.281a9.629,9.629,0,0,0,13.608,0,10.625,10.625,0,0,0,0-14.341,9.629,9.629,0,0,0-13.608,0,10.638,10.638,0,0,0,0,14.341l.285-.281.284-.281a9.841,9.841,0,0,1,0-13.216,8.83,8.83,0,0,1,12.47,0,9.832,9.832,0,0,1,0,13.216,8.83,8.83,0,0,1-12.47,0Zm15.32,2.009-.286-.278a12.064,12.064,0,0,1-17.025,0l-.011-.013.011.013a12.57,12.57,0,0,1,0-17.241,12.02,12.02,0,0,1,17.01.017,12.526,12.526,0,0,1,.016,17.224l.286.278.288.278a13.323,13.323,0,0,0-.016-18.337,12.817,12.817,0,0,0-18.156-.016v0a13.368,13.368,0,0,0,0,18.356l.011.011-.011-.013a12.859,12.859,0,0,0,18.172,0Zm7.864,3.1v-24h3.753l11.664,18.67h.133l-.133-4.625V151.476h3.086v24h-3.219l-12.2-19.575h-.133l.133,4.627v14.948h-3.081" transform="translate(-1242.725 -123.477)" fill="#fff"/>
  <path id="Path_20068" data-name="Path 20068" d="M1049.869,177.93h.4v-23.6h3.131L1065.064,173h.766l-.144-5.031V154.33h2.286v23.2h-2.6l-12.2-19.575h-.766l.143,5.033V177.53h-2.681v.4h0v.4h3.481V162.975l-.133-4.631-.4.011v.4h.133v-.4l-.339.213,12.32,19.762h3.841v-24.8h-3.886v14.45l.133,4.631.4-.011v-.4h-.133v.4l.339-.212-11.782-18.858h-4.375v24.8h.4v-.4m125.442,68h7.464v-50h-7.464Zm67.228-31.992-8.556,21.68h-.256l-8.88-21.68h-8.04l13.316,30.3-7.592,16.855h7.788l20.52-47.156Zm-42.328,26.312c-2.448,0-5.856-1.222-5.856-4.247,0-3.86,4.248-5.339,7.912-5.339a13.283,13.283,0,0,1,6.82,1.674,9.049,9.049,0,0,1-8.876,7.912Zm.9-27.406c-5.4,0-11,2.381-13.316,7.656l6.624,2.766c1.416-2.766,4.052-3.667,6.82-3.667,3.86,0,7.784,2.317,7.848,6.435v.514a16.506,16.506,0,0,0-7.784-1.93c-7.14,0-14.412,3.923-14.412,11.258,0,6.691,5.856,11,12.416,11,5.02,0,7.784-2.252,9.524-4.889h.256v3.859h7.2V226.675c0-8.876-6.624-13.831-15.18-13.831Zm-46.128,7.181h-10.616v-17.14h10.616a8.572,8.572,0,1,1,0,17.14Zm-.192-24.1h-17.884v50h7.46V226.985h10.424c8.272,0,16.4-5.989,16.4-15.53s-8.132-15.53-16.4-15.53Zm-97.524,44.334c-5.156,0-9.474-4.317-9.474-10.247,0-5.992,4.317-10.375,9.474-10.375,5.091,0,9.086,4.383,9.086,10.375,0,5.93-4,10.247-9.086,10.247Zm8.57-23.522h-.258a11.791,11.791,0,0,0-8.958-3.8c-8.506,0-16.3,7.475-16.3,17.076,0,9.538,7.8,16.949,16.3,16.949a11.6,11.6,0,0,0,8.958-3.866h.258v2.448c0,6.51-3.479,9.989-9.086,9.989a9.418,9.418,0,0,1-8.572-6.058l-6.507,2.706a16.213,16.213,0,0,0,15.079,10.053c8.764,0,16.175-5.157,16.175-17.722V213.968h-7.089Zm12.244,29.192h7.475V195.923h-7.475Zm18.5-16.5a9.33,9.33,0,0,1,8.892-9.924c2.966,0,5.478,1.481,6.314,3.61Zm23.2-5.67c-1.416-3.8-5.736-10.826-14.564-10.826-8.764,0-16.045,6.9-16.045,17.012a16.647,16.647,0,0,0,16.883,17.013,16.924,16.924,0,0,0,14.179-7.539l-5.8-3.867a9.715,9.715,0,0,1-8.379,4.7,8.657,8.657,0,0,1-8.249-5.155l22.747-9.409Zm-181.233-5.606v7.217h17.27c-.516,4.06-1.869,7.024-3.931,9.086-2.512,2.514-6.443,5.285-13.339,5.285a19.206,19.206,0,0,1,0-38.408,18.405,18.405,0,0,1,13.017,5.156l5.091-5.09a25.172,25.172,0,0,0-18.108-7.283c-14.564,0-26.808,11.858-26.808,26.421s12.244,26.421,26.808,26.421c7.862,0,13.79-2.576,18.43-7.411,4.769-4.769,6.252-11.47,6.252-16.883a23.412,23.412,0,0,0-.388-4.511Zm44.316,22.1c-5.156,0-9.6-4.253-9.6-10.311,0-6.122,4.447-10.311,9.6-10.311s9.6,4.189,9.6,10.311C992.459,236.006,988.013,240.26,982.858,240.26Zm0-27.323a17.013,17.013,0,1,0,17.076,17.012A16.769,16.769,0,0,0,982.858,212.936Zm37.253,27.323c-5.154,0-9.6-4.253-9.6-10.311,0-6.122,4.447-10.311,9.6-10.311s9.6,4.189,9.6,10.311c0,6.058-4.447,10.311-9.6,10.311Zm0-27.323a17.013,17.013,0,1,0,17.077,17.012,16.768,16.768,0,0,0-17.077-17.012Z" transform="translate(-747.567 -125.93)" fill="#fff"/>
  <path id="Path_20069" data-name="Path 20069" d="M223.685,163.432c-1.342,1.211-2.144,3.231-2.144,5.913v87.3a8.01,8.01,0,0,0,1.851,5.62l.3.284h0a5.142,5.142,0,0,0,3.535,1.3,9.213,9.213,0,0,0,4.481-1.342l58.061-32.989,19.944-11.333c2.533-1.439,3.955-3.3,4.193-5.186v-.008c-.238-1.9-1.66-3.75-4.192-5.189l-19.945-11.331-58.059-32.989a9.23,9.23,0,0,0-4.489-1.345,5.149,5.149,0,0,0-3.531,1.3Z" transform="translate(-181.65 -132.987)" fill="#00c1ff"/>
  <path id="Path_20070" data-name="Path 20070" d="M2.263-452.453l-.3-.284a8.01,8.01,0,0,1-1.851-5.62v-87.3c0-2.681.8-4.7,2.144-5.913l49.559,49.558L2.263-452.453" transform="translate(39.776 582.011)" fill="url(#linear-gradient)"/>
  <path id="Path_20071" data-name="Path 20071" d="M17.208-151.52.686-168.045l16.521-16.522,19.945,11.331c2.533,1.439,3.955,3.294,4.192,5.189v.008c-.238,1.891-1.66,3.747-4.192,5.186L17.208-151.52" transform="translate(90.908 248.048)" fill="url(#linear-gradient-2)"/>
  <path id="Path_20072" data-name="Path 20072" d="M3.974-232.161a5.143,5.143,0,0,1-3.534-1.3h0l49.554-49.555,16.522,16.525L8.455-233.5a9.212,9.212,0,0,1-4.481,1.342" transform="translate(41.599 363.02)" fill="url(#linear-gradient-3)"/>
  <path id="Path_20073" data-name="Path 20073" d="M49.749-232.749.19-282.307a5.15,5.15,0,0,1,3.531-1.3A9.228,9.228,0,0,1,8.21-282.26L66.27-249.271,49.749-232.749" transform="translate(41.844 312.752)" fill="url(#linear-gradient-4)"/>
  <path id="Path_20074" data-name="Path 20074" d="M4.623-160.177a5.155,5.155,0,0,1-3.536-1.3h0l-.012-.011-.258-.252-.025-.026.3-.3a5.142,5.142,0,0,0,3.535,1.3A9.211,9.211,0,0,0,9.1-162.1l58.061-32.989.372.372-.377.214L9.1-161.521a9.561,9.561,0,0,1-4.114,1.335q-.183.009-.366.009" transform="translate(40.952 291.622)" fill="url(#linear-gradient-5)"/>
  <path id="Path_20075" data-name="Path 20075" d="M1.966-29.1a8.007,8.007,0,0,1-1.851-5.62v-.583a8.01,8.01,0,0,0,1.851,5.62l.3.284-.3.3" transform="translate(39.776 158.958)" fill="url(#linear-gradient-6)"/>
  <path id="Path_20076" data-name="Path 20076" d="M1.014-77.236l-.372-.372L20.585-88.941c2.533-1.439,3.955-3.3,4.193-5.186a4.953,4.953,0,0,1-.462,2.063,8.583,8.583,0,0,1-3.73,3.708L1.014-77.236" transform="translate(107.474 174.136)" fill="url(#linear-gradient-7)"/>
  <path id="Path_20077" data-name="Path 20077" d="M24.771-77.791c-.238-1.9-1.66-3.75-4.192-5.189L.633-94.312l.372-.372h0L20.578-83.563c2.792,1.588,4.191,3.68,4.192,5.772" transform="translate(107.481 157.793)" fill="url(#linear-gradient-8)"/>
  <path id="Path_20078" data-name="Path 20078" d="M.115-28.552v-.611c0-.22.006-.436.017-.645v-.01a.028.028,0,0,1,0-.009v-.024a7.621,7.621,0,0,1,1.833-4.908l.292.294C.916-33.253.115-31.233.115-28.552" transform="translate(39.776 64.909)" fill="url(#linear-gradient-9)"/>
  <path id="Path_20079" data-name="Path 20079" d="M67.161-159.984,9.1-192.974a9.228,9.228,0,0,0-4.489-1.345,5.149,5.149,0,0,0-3.531,1.3l-.292-.294q.137-.145.284-.28l.011-.01a5.146,5.146,0,0,1,3.5-1.3h.03A9.226,9.226,0,0,1,9.1-193.557l58.433,33.2h0l-.372.372" transform="translate(40.953 223.465)" fill="url(#linear-gradient-10)"/>
</svg>
